<?xml version="1.0" standalone="no"?>
<!DOCTYPE svg PUBLIC "-//W3C//DTD SVG 20010904//EN"
 "http://www.w3.org/TR/2001/REC-SVG-20010904/DTD/svg10.dtd">
<svg version="1.0" xmlns="http://www.w3.org/2000/svg"
 width="100.000000pt" height="100.000000pt" viewBox="0 0 100.000000 100.000000"
 preserveAspectRatio="xMidYMid meet">

<g transform="translate(0.000000,100.000000) scale(0.100000,-0.100000)"
fill="#FFFFFF" stroke="none">
<path d="M372 944 c-29 -7 -65 -20 -79 -28 -25 -12 -19 -14 73 -18 76 -3 108
-8 133 -23 54 -32 75 -67 73 -124 -1 -55 -12 -83 -50 -123 -14 -16 -22 -33
-19 -42 5 -14 12 -12 43 9 33 22 47 25 130 25 l94 0 0 -61 0 -62 -26 26 c-27
27 -73 41 -115 35 -20 -2 -24 -9 -24 -38 0 -32 6 -39 75 -87 132 -93 142 -104
150 -153 l6 -45 31 48 c46 71 66 158 61 261 -4 73 -10 95 -42 161 -97 197
-308 295 -514 239z m284 -63 c185 -86 273 -284 217 -484 l-16 -60 -21 25 c-12
14 -56 48 -98 77 -97 66 -110 81 -74 81 18 0 40 -13 66 -40 22 -22 48 -40 60
-40 19 0 20 6 20 110 l0 110 -103 0 -104 0 4 78 c5 88 -11 126 -69 163 l-33
21 45 -6 c25 -4 73 -20 106 -35z"/>
<path d="M157 811 c-127 -135 -152 -332 -66 -504 51 -101 150 -184 261 -219
64 -19 157 -25 126 -8 -52 31 -77 148 -42 199 30 43 105 59 118 26 7 -19 -21
-53 -47 -57 -19 -3 -22 -9 -22 -47 0 -54 30 -81 99 -88 80 -9 146 36 146 101
0 46 -20 69 -128 140 -53 35 -119 87 -145 115 -69 73 -98 151 -58 151 26 0 67
51 75 94 14 72 -50 150 -119 144 l-30 -3 -3 -230 c-2 -228 -2 -230 20 -247 22
-17 21 -18 -64 -18 -49 0 -88 3 -88 6 0 3 7 12 15 20 12 13 15 54 15 245 0
126 -4 229 -9 229 -4 0 -29 -22 -54 -49z m257 -22 c14 -17 26 -39 26 -50 0
-25 -27 -79 -39 -79 -5 0 -16 -3 -25 -6 -14 -5 -16 6 -16 80 0 97 10 108 54
55z m-234 -191 l0 -183 -35 -28 -35 -28 -12 28 c-6 15 -12 73 -12 128 -1 84 3
108 22 150 21 45 63 115 70 115 1 0 2 -82 2 -182z m279 -185 c43 -41 51 -53
36 -53 -34 0 -81 -36 -100 -75 -13 -29 -16 -53 -12 -102 3 -36 1 -63 -5 -63
-23 0 -120 54 -161 90 -41 36 -87 96 -87 114 0 3 59 6 130 6 l130 0 11 26 c5
15 8 28 7 29 -2 1 -13 8 -25 14 -20 10 -23 20 -23 69 l1 57 21 -30 c12 -16 47
-54 77 -82z m204 -151 c55 -52 20 -112 -65 -112 -59 0 -105 50 -59 65 27 8 51
38 53 67 2 23 5 25 23 16 11 -6 32 -22 48 -36z"/>
</g>
</svg>
