<?xml version="1.0" encoding="UTF-8"?>
<svg xmlns="http://www.w3.org/2000/svg" xmlns:xlink="http://www.w3.org/1999/xlink" width="31px" height="32px" viewBox="0 0 31 32" version="1.1">
<g id="surface1">
<path style=" stroke:none;fill-rule:nonzero;fill:rgb(100%,100%,100%);fill-opacity:1;" d="M 2.675781 8.355469 C 2.925781 8.027344 3.257812 7.582031 3.519531 7.265625 C 4.308594 6.390625 4.410156 6.277344 5.128906 5.628906 C 5.34375 5.457031 5.59375 5.253906 5.84375 5.058594 C 4.019531 6.566406 3.789062 8.234375 5.460938 9.265625 C 5.457031 9.265625 5.457031 9.265625 5.457031 9.269531 C 7.796875 10.644531 12.921875 10.347656 16.96875 8.585938 C 20.882812 6.878906 22.332031 4.4375 20.398438 2.984375 C 18.699219 2.675781 16.675781 2.636719 14.535156 2.917969 L 14.3125 2.558594 L 14.496094 1.964844 C 15.757812 1.855469 16.953125 1.882812 17.984375 2.054688 C 18.234375 2.09375 18.5625 2.164062 18.808594 2.214844 C 19.285156 2.328125 19.542969 2.398438 19.851562 2.496094 C 20.167969 2.585938 20.441406 2.679688 20.910156 2.847656 C 21.371094 3.027344 21.570312 3.105469 21.941406 3.285156 C 22.355469 3.472656 22.757812 3.679688 23.148438 3.910156 C 26.226562 5.804688 24.3125 9.257812 18.875 11.621094 C 13.457031 13.980469 6.546875 14.347656 3.453125 12.480469 C 3.449219 12.476562 3.445312 12.476562 3.4375 12.472656 L 3.445312 12.472656 C 1.753906 11.425781 1.574219 9.910156 2.675781 8.355469 Z M 16.78125 21.582031 L 16.738281 19.457031 L 15.191406 17.777344 C 10.078125 18.90625 5.054688 18.664062 2.261719 17.058594 C 2.253906 17.046875 2.230469 17.035156 2.21875 17.023438 C 0.640625 16.074219 0.25 14.847656 0.367188 13.515625 C -0.00390625 15.464844 -0.03125 16.167969 0.0195312 17.839844 C 0.0859375 18.882812 0.703125 19.847656 1.949219 20.609375 L 1.957031 20.617188 C 4.9375 22.425781 11.140625 22.820312 16.78125 21.582031 Z M 23.234375 24.015625 C 16.019531 26.839844 6.992188 27.007812 3.070312 24.390625 C 3.492188 25.402344 4.070312 26.34375 4.777344 27.1875 C 8.378906 29.589844 16.664062 29.4375 23.285156 26.84375 C 27.15625 25.328125 29.601562 23.308594 30.242188 21.417969 L 30.421875 20.847656 C 30.851562 19.40625 30.933594 18.207031 31 17.136719 C 30.921875 19.457031 28.121094 22.097656 23.234375 24.015625 Z M 7.308594 29.457031 C 7.535156 29.667969 8.25 30.519531 11.859375 31.464844 C 12.835938 31.675781 15.292969 32.351562 19.835938 31.371094 L 19.863281 30.964844 L 19.503906 30.414062 C 15.289062 31.390625 10.609375 31.0625 7.308594 29.457031 Z M 17.734375 12.644531 L 21.570312 15.484375 C 21.570312 15.484375 22.390625 16.058594 21.613281 16.464844 C 20.84375 16.867188 18.863281 17.847656 18.863281 17.847656 L 16.90625 17.136719 L 15.925781 17.5625 L 17.65625 19.03125 L 17.667969 21.316406 L 18.6875 20.875 L 19.359375 18.945312 C 19.359375 18.945312 21.433594 18.164062 22.253906 17.871094 C 23.082031 17.585938 22.96875 18.566406 22.96875 18.566406 L 22.5625 23.246094 L 23.914062 22.660156 L 26.140625 16.34375 C 26.140625 16.34375 27.320312 15.785156 28.148438 15.292969 C 28.980469 14.800781 29.261719 13.984375 29.261719 13.984375 C 29.261719 13.984375 28.453125 13.644531 27.523438 13.917969 C 26.59375 14.1875 25.378906 14.671875 25.378906 14.671875 L 19.082031 12.058594 Z M 9.617188 3.664062 L 12.222656 5.6875 L 12.933594 5.585938 L 11.515625 3.765625 C 11.515625 3.765625 11.207031 3.390625 11.621094 3.300781 C 12.039062 3.210938 13.097656 3 13.097656 3 L 13.890625 3.621094 L 14.425781 3.542969 L 13.820312 2.601562 L 14.140625 1.558594 L 13.625 1.628906 L 13.011719 2.425781 C 13.011719 2.425781 11.933594 2.523438 11.511719 2.558594 C 11.085938 2.589844 11.269531 2.144531 11.269531 2.144531 L 12.085938 0 L 11.367188 0.101562 L 9.484375 2.78125 C 9.484375 2.78125 8.855469 2.894531 8.402344 3.019531 C 7.945312 3.144531 7.707031 3.488281 7.707031 3.488281 C 7.707031 3.488281 8.039062 3.753906 8.511719 3.742188 C 8.984375 3.734375 9.617188 3.664062 9.617188 3.664062 Z M 22.488281 29.6875 L 20.800781 28.828125 L 20.414062 28.957031 L 21.414062 29.832031 C 21.414062 29.832031 21.625 30.007812 21.402344 30.101562 C 21.179688 30.195312 20.609375 30.425781 20.609375 30.425781 L 20.136719 30.21875 L 19.855469 30.320312 L 20.25 30.726562 L 20.210938 31.324219 L 20.503906 31.222656 L 20.722656 30.738281 C 20.722656 30.738281 21.3125 30.566406 21.550781 30.507812 C 21.785156 30.445312 21.730469 30.714844 21.730469 30.714844 L 21.507812 32 L 21.898438 31.867188 L 22.660156 30.167969 C 22.660156 30.167969 23 30.039062 23.238281 29.917969 C 23.480469 29.800781 23.578125 29.582031 23.578125 29.582031 C 23.578125 29.582031 23.363281 29.464844 23.097656 29.523438 C 22.832031 29.578125 22.488281 29.6875 22.488281 29.6875 Z M 22.488281 29.6875 "/>
</g>
</svg>
